GIL03_xfast2_RRA_states
nRows=4
nColumns=47

# SIMM Motion File Header:
name GIL03_xfast2_RRA_states
datacolumns 47
datarows 4
otherdata 1
range 0.22867000000000012000 0.23017000000000012000
endheader
time	pelvis_tx	pelvis_ty	pelvis_tz	pelvis_tilt	pelvis_list	pelvis_rotation	hip_flexion_r	hip_adduction_r	hip_rotation_r	knee_angle_r	ankle_angle_r	subtalar_angle_r	mtp_angle_r	hip_flexion_l	hip_adduction_l	hip_rotation_l	knee_angle_l	ankle_angle_l	subtalar_angle_l	mtp_angle_l	lumbar_extension	lumbar_bending	lumbar_rotation	pelvis_tx_u	pelvis_ty_u	pelvis_tz_u	pelvis_tilt_u	pelvis_list_u	pelvis_rotation_u	hip_flexion_r_u	hip_adduction_r_u	hip_rotation_r_u	knee_angle_r_u	ankle_angle_r_u	subtalar_angle_r_u	mtp_angle_r_u	hip_flexion_l_u	hip_adduction_l_u	hip_rotation_l_u	knee_angle_l_u	ankle_angle_l_u	subtalar_angle_l_u	mtp_angle_l_u	lumbar_extension_u	lumbar_bending_u	lumbar_rotation_u
      0.22867000000000012000	      0.83935174736058416000	      0.88322013172180625000	     -0.28366831026324441000	     -5.00684683926228140000	      4.70569624634020480000	     -1.34207665716949040000	     30.47994967801729200000	    -10.05861438327263400000	     -8.75763400394682100000	    -48.52078920602412600000	      5.25334160417053830000	      0.00000000000000129048	     -0.00000000000000338917	     -0.83634735282544970000	      5.41447119863222160000	      0.68026477428706433000	     -7.93109433153249110000	     10.51215879253718000000	      0.00000000000002256855	     -0.00000000000003816839	     -9.07224351528709150000	     -1.53929527353173760000	      2.86247786800812420000	      1.93119119425694640000	     -0.10250040958244035000	     -0.05578760585447988700	     -9.44611487449658860000	      1.06523783130342210000	     55.78143189003502300000	    119.55770950281823000000	     -6.29811286657161420000	      0.09999804381759207200	    354.89838706767421000000	    -83.67589422313530200000	      0.00000000000001681422	     -0.00000000000001973319	   -165.95546308988125000000	     -3.84867927327990690000	      7.45146040924710550000	     76.17600064443556100000	      3.82259255436249920000	      0.00000000000018077123	     -0.00000000000012624181	    -16.22028575525497000000	     35.92609680913157900000	   -111.18598144674350000000
      0.22917000000000012000	      0.84031753367782247000	      0.88316872338045405000	     -0.28369589846425475000	     -5.01143204339923280000	      4.70622976260045520000	     -1.31420893385024300000	     30.53926066757047400000	    -10.06172308805581000000	     -8.75754172015143690000	    -48.34278704182527500000	      5.21102780989300740000	      0.00000000000000129883	     -0.00000000000000339940	     -0.91942391649005406000	      5.41253349356257640000	      0.68413869086676082000	     -7.89312503944334590000	     10.51396363670986000000	      0.00000000000002266107	     -0.00000000000003823912	     -9.08048889736984500000	     -1.52141236658672500000	      2.80702291114640130000	      1.93195688775938250000	     -0.10313314800445023000	     -0.05456447800187713700	     -8.89587755583068330000	      1.06843375794548120000	     55.69001167364378100000	    117.68680685931102000000	     -6.13589000037893670000	      0.26836699202060083000	    357.10768009284789000000	    -85.57475400931996000000	      0.00000000000001749176	     -0.00000000000002067459	   -166.34911518527423000000	     -3.90286801201847840000	      8.04341812222701510000	     75.69961360431078400000	      3.39733630284824750000	      0.00000000000017370602	     -0.00000000000010201614	    -16.75913690556101800000	     35.60586145520684200000	   -110.63336350979898000000
      0.22967000000000012000	      0.84128370706853828000	      0.88311699838953261000	     -0.28372287400767826000	     -5.01574388240015700000	      4.70676428261068920000	     -1.28638611007523430000	     30.59763704241111200000	    -10.06474945350943900000	     -8.75736640312795700000	    -48.16368412712132900000	      5.16777139672714990000	      0.00000000000000130793	     -0.00000000000000341014	     -1.00269480650450850000	      5.41056759997879140000	      0.68830738449119033000	     -7.85539626496208940000	     10.51555660532951800000	      0.00000000000002273912	     -0.00000000000003826523	     -9.08900055649493410000	     -1.50368908044564640000	      2.75184500136315880000	      1.93273950147438070000	     -0.10376699139472366000	     -0.05333695037568309700	     -8.35263447104393460000	      1.06924473161450130000	     55.60180416586998600000	    115.81925181984373000000	     -5.96874873141817820000	      0.43213851428132077000	    359.30136315693193000000	    -87.44633186235985500000	      0.00000000000001816801	     -0.00000000000002158532	   -166.73279765672717000000	     -3.96144047775924020000	      8.63052767986828330000	     75.21394495328810600000	      2.97494030687612240000	      0.00000000000015759163	     -0.00000000000005038593	    -17.28541314406685500000	     35.28761633634631800000	   -110.07776511553136000000
      0.23017000000000012000	      0.84225027603093860000	      0.88306495619739200000	     -0.28374923467495905000	     -5.01978584644672220000	      4.70729859704091600000	     -1.25860657850750020000	     30.65508049404689900000	    -10.06769102420430100000	     -8.75711042006408570000	    -47.98348835248766900000	      5.12358608447133080000	      0.00000000000000131708	     -0.00000000000000342091	     -1.08615503620633840000	      5.40857129939584610000	      0.69276836704055611000	     -7.81791267126508330000	     10.51693907782009600000	      0.00000000000002281496	     -0.00000000000003827701	     -9.09777219829133270000	     -1.48612440892821040000	      2.69694564684860040000	      1.93353922402903590000	     -0.10440198371829278000	     -0.05210498652188282100	     -7.81640331575833440000	      1.06759386127340020000	     55.51690396718805000000	    113.95514688348734000000	     -5.79673233920661080000	      0.59087850288890387000	    361.47900035832021000000	    -89.29026806573631300000	      0.00000000000001781966	     -0.00000000000001961892	   -167.10641217456870000000	     -4.02453508738389140000	      9.21252773616870610000	     74.71881624348714000000	      2.55555057150851140000	      0.00000000000014650531	      0.00000000000000704850	    -17.79901562536500500000	     34.97141967875315800000	   -109.51916263363755000000
